<svg width="18" height="18" viewBox="0 0 18 18" fill="none" xmlns="http://www.w3.org/2000/svg">
<g id="Shopping cart">
<g id="Vector">
<path d="M5.7994 11.6369H5.80023L5.80229 11.6367H15.3633C15.5987 11.6367 15.8056 11.4806 15.8703 11.2543L17.9797 3.87144C18.0251 3.71228 17.9933 3.54117 17.8937 3.40906C17.794 3.27695 17.6381 3.19922 17.4726 3.19922H4.58322L4.20625 1.50279C4.15256 1.2615 3.9386 1.08984 3.6914 1.08984H0.527344C0.236069 1.08984 0 1.32591 0 1.61719C0 1.90846 0.236069 2.14453 0.527344 2.14453H3.26843C3.33517 2.44514 5.07238 10.2627 5.17236 10.7125C4.61192 10.9561 4.21875 11.5149 4.21875 12.1641C4.21875 13.0364 4.92846 13.7461 5.80078 13.7461H15.3633C15.6545 13.7461 15.8906 13.51 15.8906 13.2187C15.8906 12.9275 15.6545 12.6914 15.3633 12.6914H5.80078C5.51005 12.6914 5.27343 12.4548 5.27343 12.1641C5.27343 11.8737 5.50923 11.6375 5.7994 11.6369ZM16.7735 4.2539L14.9654 10.582H6.22375L4.8175 4.2539H16.7735Z" fill="#FAFAFA"/>
<path d="M5.27343 15.3281C5.27343 16.2004 5.98315 16.9101 6.85546 16.9101C7.72778 16.9101 8.4375 16.2004 8.4375 15.3281C8.4375 14.4558 7.72778 13.7461 6.85546 13.7461C5.98315 13.7461 5.27343 14.4558 5.27343 15.3281ZM6.85546 14.8008C7.14619 14.8008 7.38281 15.0374 7.38281 15.3281C7.38281 15.6188 7.14619 15.8555 6.85546 15.8555C6.56474 15.8555 6.32812 15.6188 6.32812 15.3281C6.32812 15.0374 6.56474 14.8008 6.85546 14.8008Z" fill="#FAFAFA"/>
<path d="M12.7266 15.3281C12.7266 16.2004 13.4363 16.9101 14.3086 16.9101C15.1809 16.9101 15.8906 16.2004 15.8906 15.3281C15.8906 14.4558 15.1809 13.7461 14.3086 13.7461C13.4363 13.7461 12.7266 14.4558 12.7266 15.3281ZM14.3086 14.8008C14.5993 14.8008 14.8359 15.0374 14.8359 15.3281C14.8359 15.6188 14.5993 15.8555 14.3086 15.8555C14.0179 15.8555 13.7812 15.6188 13.7812 15.3281C13.7812 15.0374 14.0179 14.8008 14.3086 14.8008Z" fill="#FAFAFA"/>
</g>
</g>
</svg>
